<svg width="250" height="36" viewBox="0 0 250 36" fill="none" xmlns="http://www.w3.org/2000/svg">
<path d="M74.6687 17.9705L72.6345 16.6057L71.0891 12.3365C70.8199 11.593 70.1363 11.079 69.347 11.0273L47.8961 9.62047L41.5493 5.1663C38.3406 2.91463 34.3132 2.14203 30.4992 3.04684L25.814 4.15854C20.7932 5.34969 15.97 7.26684 11.5079 9.82079C11.4456 9.81481 11.3826 9.81123 11.3187 9.81123H5.97069L4.16385 8.0044C3.38628 7.22682 2.12543 7.22682 1.34766 8.0044C0.570087 8.78197 0.570087 10.0428 1.34766 10.8206L3.73773 13.2106C4.11108 13.584 4.61765 13.7939 5.14572 13.7939H5.52764C4.36476 14.6838 3.23654 15.6212 2.14833 16.6059C1.73117 16.9834 1.49302 17.5197 1.49302 18.0824V19.7275L0.207087 22.3231C0.0708876 22.5979 0 22.9005 0 23.2072C0 25.6775 2.00974 27.6872 4.48005 27.6872H11.6998C12.578 30.9302 15.5449 33.3232 19.0616 33.3232C22.5783 33.3232 25.5454 30.9302 26.4233 27.6872H51.0227C51.9009 30.9302 54.8678 33.3232 58.3845 33.3232C61.9012 33.3232 64.8683 30.9302 65.7462 27.6872H70.6912C72.6892 27.6872 74.4626 26.344 75.004 24.4204L75.8871 21.2807C76.2402 20.0266 75.7505 18.6963 74.6687 17.9705ZM71.1705 23.3418C71.1104 23.5555 70.9135 23.7048 70.6914 23.7048H65.7464C64.8683 20.4619 61.9014 18.0688 58.3847 18.0688C54.868 18.0688 51.9009 20.4619 51.0229 23.7048H26.4233C25.5452 20.4619 22.5783 18.0688 19.0616 18.0688C15.5449 18.0688 12.5778 20.4619 11.6998 23.7048H4.48005C4.3116 23.7048 4.16226 23.6206 4.07225 23.4921L5.26878 21.0776C5.40498 20.8028 5.47587 20.5001 5.47587 20.1935V18.9762C11.5511 13.6728 18.8824 9.89586 26.7332 8.03347L31.4183 6.92176C34.1258 6.2794 36.9842 6.82798 39.2616 8.42614L46.065 13.2009C46.3637 13.4106 46.7143 13.534 47.0785 13.5579L67.7872 14.9161L69.1114 18.5742C69.2556 18.9723 69.5228 19.3141 69.8742 19.5499L71.8619 20.8834L71.1705 23.3418ZM62.0294 25.696C62.0294 27.7058 60.3944 29.3408 58.3847 29.3408C56.3749 29.3408 54.7399 27.7058 54.7399 25.696C54.7399 23.6863 56.3749 22.0513 58.3847 22.0513C60.3944 22.0513 62.0294 23.6863 62.0294 25.696ZM22.7063 25.696C22.7063 27.7058 21.0713 29.3408 19.0616 29.3408C17.0518 29.3408 15.4169 27.7058 15.4169 25.696C15.4169 23.6863 17.0518 22.0513 19.0616 22.0513C21.0713 22.0513 22.7063 23.6863 22.7063 25.696Z" fill="#FF5F00"/>
<path d="M82.5045 28L89.6725 8.12H95.3285L102.496 28H97.4845L96.1965 24.248H88.8045L87.4885 28H82.5045ZM90.1205 20.384H94.8805L92.5285 13.384L90.1205 20.384ZM108.756 28.336C107.188 28.336 105.965 27.8413 105.088 26.852C104.229 25.844 103.8 24.444 103.8 22.652V12.936H108.616V21.532C108.616 22.596 108.765 23.3707 109.064 23.856C109.381 24.3413 109.876 24.584 110.548 24.584C111.294 24.584 111.864 24.3227 112.256 23.8C112.666 23.2587 112.872 22.4187 112.872 21.28V12.936H117.688V28H113.348L113.208 23.464L113.768 23.548C113.581 25.1533 113.068 26.3573 112.228 27.16C111.388 27.944 110.23 28.336 108.756 28.336ZM126.805 28C125.181 28 123.986 27.6267 123.221 26.88C122.474 26.1147 122.101 24.9013 122.101 23.24V9.408H126.917V22.624C126.917 23.352 127.066 23.856 127.365 24.136C127.682 24.3973 128.158 24.528 128.793 24.528H130.865V28H126.805ZM119.609 16.408V12.936H130.865V16.408H119.609ZM139.775 28.336C138.188 28.336 136.797 28.0093 135.603 27.356C134.427 26.7027 133.503 25.788 132.831 24.612C132.177 23.436 131.851 22.0547 131.851 20.468C131.851 18.8813 132.177 17.5 132.831 16.324C133.503 15.148 134.427 14.2333 135.603 13.58C136.797 12.9267 138.188 12.6 139.775 12.6C141.361 12.6 142.743 12.9267 143.919 13.58C145.095 14.2333 146.009 15.148 146.663 16.324C147.335 17.5 147.671 18.8813 147.671 20.468C147.671 22.0547 147.335 23.436 146.663 24.612C146.009 25.788 145.095 26.7027 143.919 27.356C142.743 28.0093 141.361 28.336 139.775 28.336ZM139.775 24.78C140.708 24.78 141.427 24.4067 141.931 23.66C142.453 22.9133 142.715 21.8493 142.715 20.468C142.715 19.1053 142.453 18.0507 141.931 17.304C141.427 16.5387 140.708 16.156 139.775 16.156C138.823 16.156 138.085 16.5387 137.563 17.304C137.059 18.0507 136.807 19.1053 136.807 20.468C136.807 21.8493 137.059 22.9133 137.563 23.66C138.085 24.4067 138.823 24.78 139.775 24.78ZM156.141 28V8.12H165.241C166.716 8.12 167.995 8.36267 169.077 8.848C170.179 9.33333 171.028 10.024 171.625 10.92C172.223 11.7973 172.521 12.8333 172.521 14.028C172.521 14.9613 172.335 15.7827 171.961 16.492C171.588 17.2013 171.065 17.7893 170.393 18.256C169.74 18.704 168.956 19.0027 168.041 19.152L167.957 18.872C169.32 18.872 170.347 19.1613 171.037 19.74C171.747 20.3187 172.139 21.1867 172.213 22.344L172.689 28H167.705L167.397 23.156C167.341 22.4093 167.117 21.8587 166.725 21.504C166.352 21.1493 165.689 20.972 164.737 20.972H161.013V28H156.141ZM161.013 16.996H164.485C165.475 16.996 166.231 16.7813 166.753 16.352C167.276 15.9227 167.537 15.316 167.537 14.532C167.537 13.7293 167.267 13.1227 166.725 12.712C166.203 12.3013 165.437 12.096 164.429 12.096H161.013V16.996ZM181.972 28.336C180.404 28.336 179.032 28.0093 177.856 27.356C176.68 26.7027 175.765 25.788 175.112 24.612C174.459 23.436 174.132 22.0547 174.132 20.468C174.132 18.8813 174.459 17.5093 175.112 16.352C175.765 15.176 176.671 14.2613 177.828 13.608C179.004 12.936 180.376 12.6 181.944 12.6C183.512 12.6 184.865 12.936 186.004 13.608C187.161 14.2613 188.048 15.204 188.664 16.436C189.28 17.668 189.588 19.1333 189.588 20.832V21.728H179.116C179.172 22.7733 179.461 23.5573 179.984 24.08C180.525 24.584 181.216 24.836 182.056 24.836C182.691 24.836 183.223 24.7147 183.652 24.472C184.081 24.2107 184.389 23.7907 184.576 23.212L189.392 23.492C188.981 25.06 188.113 26.264 186.788 27.104C185.463 27.9253 183.857 28.336 181.972 28.336ZM179.116 18.984H184.716C184.679 17.9947 184.408 17.2573 183.904 16.772C183.4 16.268 182.747 16.016 181.944 16.016C181.179 16.016 180.535 16.2773 180.012 16.8C179.508 17.3227 179.209 18.0507 179.116 18.984ZM195.464 28L189.948 12.936H194.96L198.264 23.184L201.54 12.936H206.524L201.008 28H195.464ZM208.261 28V12.936H213.077V28H208.261ZM208.177 11.256V7.672H213.161V11.256H208.177ZM220.306 28L214.79 12.936H219.802L223.106 23.184L226.382 12.936H231.366L225.85 28H220.306ZM239.641 28.336C238.073 28.336 236.701 28.0093 235.525 27.356C234.349 26.7027 233.434 25.788 232.781 24.612C232.128 23.436 231.801 22.0547 231.801 20.468C231.801 18.8813 232.128 17.5093 232.781 16.352C233.434 15.176 234.34 14.2613 235.497 13.608C236.673 12.936 238.045 12.6 239.613 12.6C241.181 12.6 242.534 12.936 243.673 13.608C244.83 14.2613 245.717 15.204 246.333 16.436C246.949 17.668 247.257 19.1333 247.257 20.832V21.728H236.785C236.841 22.7733 237.13 23.5573 237.653 24.08C238.194 24.584 238.885 24.836 239.725 24.836C240.36 24.836 240.892 24.7147 241.321 24.472C241.75 24.2107 242.058 23.7907 242.245 23.212L247.061 23.492C246.65 25.06 245.782 26.264 244.457 27.104C243.132 27.9253 241.526 28.336 239.641 28.336ZM236.785 18.984H242.385C242.348 17.9947 242.077 17.2573 241.573 16.772C241.069 16.268 240.416 16.016 239.613 16.016C238.848 16.016 238.204 16.2773 237.681 16.8C237.177 17.3227 236.878 18.0507 236.785 18.984Z" fill="white"/>
</svg>
