<svg width="16" height="16" viewBox="0 0 16 16" fill="none" xmlns="http://www.w3.org/2000/svg">
<g clip-path="url(#clip0_1_352)">
<mask id="mask0_1_352" style="mask-type:luminance" maskUnits="userSpaceOnUse" x="0" y="0" width="16" height="16">
<path d="M0 0H16V16H0V0Z" fill="white"/>
</mask>
<g mask="url(#mask0_1_352)">
<path d="M2.52 3.515C2.7129 3.065 3.0337 2.68155 3.44257 2.41223C3.85144 2.1429 4.3304 1.99957 4.82 2H11.182C12.182 2 13.086 2.596 13.48 3.515L14.272 5.363C14.347 5.538 14.482 5.682 14.652 5.767C15.152 6.017 15.507 6.482 15.617 7.029L15.952 8.708C15.9853 8.86933 16.0017 9.03267 16.001 9.198V9.611C16.001 10.425 15.611 11.154 15.001 11.608V13.5C15.001 13.6326 14.9483 13.7598 14.8546 13.8536C14.7608 13.9473 14.6336 14 14.501 14H12.501C12.3684 14 12.2412 13.9473 12.1474 13.8536C12.0537 13.7598 12.001 13.6326 12.001 13.5V12.162C10.709 12.21 9.256 12.25 8.001 12.25C6.746 12.25 5.293 12.21 4.001 12.162V13.5C4.001 13.6326 3.94832 13.7598 3.85455 13.8536C3.76078 13.9473 3.63361 14 3.501 14H1.501C1.36839 14 1.24121 13.9473 1.14745 13.8536C1.05368 13.7598 1.001 13.6326 1.001 13.5V11.608C0.390999 11.154 0.000999451 10.425 0.000999451 9.611V9.198C0.00116728 9.03345 0.0175802 8.86932 0.0499995 8.708L0.384999 7.028C0.494999 6.482 0.849999 6.016 1.349 5.767C1.52016 5.68215 1.65531 5.53884 1.73 5.363L2.522 3.515H2.52ZM3 10C3.26522 10 3.51957 9.89464 3.70711 9.70711C3.89464 9.51957 4 9.26522 4 9C4 8.73478 3.89464 8.48043 3.70711 8.29289C3.51957 8.10536 3.26522 8 3 8C2.73478 8 2.48043 8.10536 2.29289 8.29289C2.10536 8.48043 2 8.73478 2 9C2 9.26522 2.10536 9.51957 2.29289 9.70711C2.48043 9.89464 2.73478 10 3 10ZM13 10C13.2652 10 13.5196 9.89464 13.7071 9.70711C13.8946 9.51957 14 9.26522 14 9C14 8.73478 13.8946 8.48043 13.7071 8.29289C13.5196 8.10536 13.2652 8 13 8C12.7348 8 12.4804 8.10536 12.2929 8.29289C12.1054 8.48043 12 8.73478 12 9C12 9.26522 12.1054 9.51957 12.2929 9.70711C12.4804 9.89464 12.7348 10 13 10ZM6 8C5.73478 8 5.48043 8.10536 5.29289 8.29289C5.10536 8.48043 5 8.73478 5 9C5 9.26522 5.10536 9.51957 5.29289 9.70711C5.48043 9.89464 5.73478 10 6 10H10C10.2652 10 10.5196 9.89464 10.7071 9.70711C10.8946 9.51957 11 9.26522 11 9C11 8.73478 10.8946 8.48043 10.7071 8.29289C10.5196 8.10536 10.2652 8 10 8H6ZM2.906 5.189C2.86691 5.26965 2.84977 5.35919 2.8563 5.44857C2.86283 5.53796 2.8928 5.62405 2.94319 5.69817C2.99358 5.77229 3.06262 5.83182 3.14334 5.87076C3.22406 5.90971 3.31362 5.92669 3.403 5.92C4.313 5.847 6.753 5.75 8 5.75C9.247 5.75 11.688 5.847 12.597 5.92C12.6864 5.92669 12.7759 5.90971 12.8567 5.87076C12.9374 5.83182 13.0064 5.77229 13.0568 5.69817C13.1072 5.62405 13.1372 5.53796 13.1437 5.44857C13.1502 5.35919 13.1331 5.26965 13.094 5.189L12.138 3.276C12.0964 3.19305 12.0326 3.12331 11.9537 3.07456C11.8747 3.02582 11.7838 3 11.691 3H4.309C4.21622 3 4.12527 3.02582 4.04633 3.07456C3.96739 3.12331 3.90356 3.19305 3.862 3.276L2.906 5.189Z" fill="#FF5F00"/>
</g>
</g>
<defs>
<clipPath id="clip0_1_352">
<rect width="16" height="16" fill="white"/>
</clipPath>
</defs>
</svg>
